<svg xmlns="http://www.w3.org/2000/svg" width="18" height="18" viewBox="0 0 48 48" role="img" aria-label="Google logo">
  <path fill="#FFC107" d="M43.61 20.08h-1.59V20H24v8h11.31C33.66 32.66 29.23 36 24 36c-6.63 0-12-5.37-12-12s5.37-12 12-12c3.06 0 5.84 1.15 7.95 3.05l5.66-5.66A19.88 19.88 0 0 0 24 4C12.95 4 4 12.95 4 24s8.95 20 20 20 20-8.95 20-20c0-1.34-.14-2.65-.39-3.92"/>
  <path fill="#FF3D00" d="M6.31 14.69 12.88 19.5A11.95 11.95 0 0 1 24 12c3.06 0 5.84 1.15 7.95 3.05l5.66-5.66A19.88 19.88 0 0 0 24 4 19.97 19.97 0 0 0 6.31 14.69"/>
  <path fill="#4CAF50" d="M24 44c5.16 0 9.86-1.97 13.41-5.19l-6.19-5.24A11.95 11.95 0 0 1 24 36c-5.2 0-9.62-3.31-11.29-7.94l-6.53 5.03A20 20 0 0 0 24 44"/>
  <path fill="#1976D2" d="M43.61 20.08H24v8h11.31a12.03 12.03 0 0 1-4.08 5.49h.01l6.19 5.24C37 39.1 44 34 44 24c0-1.34-.14-2.65-.39-3.92"/>
</svg>
